<svg xmlns="http://www.w3.org/2000/svg" width="64" height="64" viewBox="0 0 64 64" fill="none">
  <rect x="4" y="4" width="56" height="56" rx="16" fill="#111111" />
  <rect x="4.5" y="4.5" width="55" height="55" rx="15.5" stroke="#2A2A2A" />

  <path
    fill="#3B82F6"
    d="M19 10H35C44.941 10 51 15.887 51 24.5C51 33.113 44.941 39 35 39H28V54H19V10ZM28 19V30H35C39.174 30 41.5 27.808 41.5 24.5C41.5 21.192 39.174 19 35 19H28Z"
  />

  <path
    d="M30 25H33.2L35.4 21.7L38.2 29.3L40.8 24.9H45"
    stroke="#E5E7EB"
    stroke-width="2.5"
    stroke-linecap="round"
    stroke-linejoin="round"
  />
  <circle cx="45.5" cy="24.9" r="1.9" fill="#EF4444" />
</svg>
